<svg width="298" height="298" viewBox="0 0 298 298" fill="none" xmlns="http://www.w3.org/2000/svg">
<path d="M186.237 15.1485L31.1742 21.3569C31.0527 21.3614 30.9314 21.3695 30.8104 21.3811C30.7214 21.3882 30.6325 21.3963 30.5436 21.4054C27.4126 21.6264 24.4814 23.0248 22.3397 25.3195C20.198 27.6142 19.0048 30.6347 19 33.7735V206.297C19 213.654 21.1856 220.843 25.2568 226.959L58.3356 276.578C59.5425 278.388 61.2038 279.849 63.1531 280.815C65.1024 281.781 67.2713 282.218 69.4427 282.083L268.109 269.666C271.262 269.468 274.221 268.077 276.383 265.774C278.546 263.472 279.75 260.432 279.75 257.274V64.8152C279.747 61.7071 278.579 58.7129 276.476 56.4243C275.976 55.7654 275.349 55.2129 274.633 54.7994L274.609 54.7752C273.883 54.2478 273.103 53.8006 272.281 53.4413L221.353 24.3883L221.765 24.655C211.362 17.5851 198.859 14.2309 186.31 15.1485H186.237ZM186.94 27.541C187.013 27.5422 187.086 27.5422 187.159 27.541C196.934 26.8132 206.678 29.4066 214.781 34.9133C214.915 35.0077 215.052 35.0967 215.193 35.1801L246.526 53.0533L79.2887 58.4614L49.6536 33.046L186.94 27.541ZM254.917 77.6441V245.609L81.0833 256.473V83.2462L254.917 77.6441ZM235.564 102.089C222.974 102.834 210.311 103.45 197.684 104.393C193.536 104.704 190.457 108.29 189.947 112.226C189.712 114.064 190.214 115.012 192.3 115.161C196.124 115.446 199.919 115.987 203.892 116.446V189.321C202.725 187.645 202.087 186.76 201.491 185.853C185.225 161.281 168.887 136.753 152.77 112.081C150.337 108.356 148.058 106.563 143.191 107.109C131.805 108.364 120.323 108.737 108.9 109.656C102.567 110.165 98.8075 115.711 100.509 121.733C104.792 122.106 109.111 122.488 113.532 122.873V227.566C110.626 228.385 107.731 229.307 104.801 230.015C101.821 230.735 100.425 232.739 99.8538 235.496C99.3944 237.706 99.9359 238.823 102.643 238.624C111.943 237.966 121.292 237.558 130.604 236.999C134.454 236.776 138.313 236.699 142.1 236.078C147.265 235.221 150.077 232.073 150.636 227.032C146.042 226.014 141.421 224.895 136.764 224.001C134.691 223.603 133.987 222.754 134 220.606C134.074 196.319 134.06 172.017 134.072 147.73C134.072 146.936 134.239 146.125 134.388 144.796C135.108 145.752 135.4 146.144 135.673 146.566C148.239 166.073 160.768 185.628 173.408 205.085C178.847 213.454 184.417 221.735 190.141 229.918C194.289 235.853 200.371 237.736 207.287 236.296C211.608 235.39 215.761 233.66 219.995 232.319C222.354 231.574 223.039 230.049 223.026 227.566C222.939 191.88 222.978 156.206 222.978 120.52C222.978 113.878 222.957 113.883 229.55 112.518C235.609 111.263 237.389 108.298 235.564 102.089Z" fill="black"/>
</svg>
